<?xml version="1.0" standalone="no"?>
<!DOCTYPE svg PUBLIC "-//W3C//DTD SVG 20010904//EN"
 "http://www.w3.org/TR/2001/REC-SVG-20010904/DTD/svg10.dtd">
<svg version="1.0" xmlns="http://www.w3.org/2000/svg"
 width="650.000000pt" height="892.000000pt" viewBox="0 0 650.000000 892.000000"
 preserveAspectRatio="xMidYMid meet">

<g transform="translate(0.000000,892.000000) scale(0.100000,-0.100000)"
fill="#000000" stroke="none">
<path d="M3526 8909 c-174 -25 -323 -90 -418 -181 -50 -48 -54 -53 -18 -26 59
46 127 88 140 88 6 0 -4 -19 -22 -42 -19 -24 -58 -73 -88 -110 -55 -70 -105
-110 -152 -122 -36 -8 -35 0 7 60 19 27 35 53 35 58 0 21 -63 -52 -96 -111
-61 -109 -100 -134 -278 -178 -127 -32 -194 -59 -235 -93 -31 -25 -33 -32 -36
-102 -3 -49 -2 -65 4 -45 28 107 87 153 276 215 55 18 112 39 128 47 15 7 27
11 27 8 0 -24 -108 -153 -251 -301 -93 -97 -169 -182 -169 -191 0 -8 -6 -13
-12 -10 -10 3 -12 31 -11 103 l2 99 -18 -85 c-23 -105 -45 -176 -111 -355 -28
-77 -64 -190 -80 -251 -30 -114 -57 -346 -45 -391 3 -14 2 -30 -4 -37 -19 -22
-33 -726 -15 -726 7 0 14 6 17 14 3 8 6 128 6 268 1 139 4 291 7 338 6 81 8
86 38 105 17 11 40 40 51 64 11 24 59 121 106 215 101 202 116 241 67 176 -70
-93 -142 -220 -189 -337 -18 -46 -37 -83 -41 -83 -23 0 7 279 46 431 80 305
253 552 519 742 98 71 308 183 444 238 46 18 81 34 79 36 -5 5 -147 -31 -218
-56 -32 -11 -100 -42 -153 -69 -52 -27 -95 -46 -95 -42 0 21 108 144 156 179
95 68 233 110 257 78 9 -12 33 -17 97 -19 78 -3 85 -5 88 -24 2 -17 -5 -25
-30 -34 -47 -18 -10 -26 47 -10 56 16 75 8 103 -40 13 -23 33 -45 45 -49 184
-71 246 -113 408 -271 128 -126 189 -182 173 -160 -6 8 -47 60 -91 116 -138
171 -252 262 -387 307 -79 27 -91 37 -43 37 20 0 37 4 37 9 0 14 60 19 104 9
23 -5 83 -29 135 -54 52 -24 96 -42 98 -40 2 2 -16 20 -40 40 -106 87 -251
120 -340 77 -71 -35 -106 -23 -49 17 82 58 231 69 378 26 165 -47 375 -168
506 -292 95 -90 85 -61 -14 40 -169 172 -364 276 -575 308 -96 15 -179 7 -285
-26 -89 -28 -116 -24 -136 21 -9 19 -7 30 11 56 32 46 107 85 233 118 109 29
109 29 54 30 -30 0 -78 -5 -105 -13 -113 -30 -241 -103 -251 -143 -5 -17 -10
-21 -17 -14 -6 6 -23 11 -38 11 -55 0 -48 30 16 79 25 18 45 40 45 47 0 31
-36 10 -99 -56 -56 -58 -73 -70 -100 -70 -30 0 -31 1 -20 23 33 62 104 159
141 192 22 21 66 49 96 63 52 23 72 26 261 34 165 6 224 5 308 -8 336 -49 584
-188 732 -409 59 -89 135 -265 114 -265 -5 0 -47 38 -94 84 -83 82 -167 136
-211 136 -16 0 -5 -11 41 -37 256 -152 435 -514 456 -925 l6 -113 -53 84
c-241 378 -359 525 -511 638 -124 91 -118 72 22 -63 222 -214 366 -404 481
-634 51 -102 58 -124 64 -195 3 -46 2 -86 -3 -95 -13 -19 -13 -19 -45 75 -62
176 -178 371 -325 545 -92 110 -201 223 -426 441 -151 147 -205 192 -205 170
0 -14 127 -148 304 -321 169 -165 291 -290 348 -355 176 -203 316 -477 334
-649 8 -79 -14 -204 -71 -411 -24 -88 -53 -200 -65 -250 -49 -214 -133 -405
-176 -405 -13 0 -14 19 -10 123 2 67 0 154 -5 192 -10 80 -20 213 -25 330 -11
275 -121 611 -282 860 -118 184 -310 393 -561 612 -209 182 -249 225 -253 270
l-3 37 -14 -27 c-18 -33 -4 -70 44 -118 19 -19 34 -38 35 -44 0 -24 -156 -180
-275 -275 -71 -57 -211 -185 -310 -284 -257 -258 -454 -505 -626 -783 -85
-138 -92 -147 -80 -107 33 116 105 270 253 542 55 101 98 186 95 188 -9 9
-124 -161 -179 -264 -88 -163 -150 -318 -259 -643 l-99 -296 72 -75 c40 -41
80 -78 88 -80 11 -4 20 -39 33 -129 59 -408 138 -658 262 -824 38 -51 42 -61
32 -79 -7 -12 -15 -68 -19 -126 -22 -339 -32 -421 -61 -500 -27 -75 -44 -98
-86 -120 -20 -11 -49 -33 -66 -51 -16 -17 -73 -52 -125 -78 -52 -26 -106 -54
-120 -63 -14 -9 -41 -19 -60 -23 -19 -4 -78 -28 -130 -55 -117 -59 -218 -95
-436 -155 -410 -112 -574 -197 -694 -361 -104 -140 -146 -277 -190 -626 -11
-90 -28 -201 -37 -248 -8 -47 -19 -157 -23 -245 -5 -88 -13 -250 -20 -360 -20
-341 -3 -919 41 -1375 13 -138 31 -224 24 -115 -2 39 -10 122 -16 185 -7 63
-13 201 -14 305 -2 105 -6 272 -10 372 -14 390 48 1260 116 1623 61 323 129
461 287 580 142 106 282 165 697 290 408 124 555 188 704 307 44 35 82 63 85
63 15 0 3 -27 -25 -56 -17 -18 -29 -38 -27 -46 9 -23 79 62 113 137 60 130
105 373 105 563 0 194 -1 194 126 57 229 -249 337 -315 517 -315 58 0 79 5
140 35 39 19 80 35 92 35 29 0 250 146 450 296 l30 22 2 -126 c1 -70 7 -161
13 -202 6 -41 15 -106 20 -145 5 -38 8 -71 6 -73 -2 -2 -32 22 -67 53 -35 32
-80 66 -101 76 -33 17 -29 11 35 -54 75 -75 153 -179 251 -335 32 -50 62 -90
67 -87 26 17 97 -192 150 -445 69 -326 97 -395 310 -752 207 -346 426 -721
445 -760 10 -21 21 -38 26 -38 18 0 6 46 -26 99 -47 77 -49 94 -11 101 17 3
59 2 95 -2 150 -16 150 -16 150 -2 0 8 -6 14 -14 14 -8 0 -23 11 -34 24 -19
25 -19 26 5 97 26 82 29 109 9 109 -18 0 -33 -42 -41 -115 -8 -86 -12 -88
-138 -79 l-107 7 -46 86 c-26 47 -110 192 -187 321 -171 285 -241 419 -302
570 -47 117 -119 374 -111 396 2 6 16 14 31 18 15 4 70 26 123 50 53 24 122
49 152 56 30 7 60 20 66 28 9 12 24 10 105 -16 52 -16 179 -49 283 -72 265
-58 359 -96 453 -183 105 -97 268 -396 347 -637 74 -227 125 -492 176 -925 21
-177 38 -258 39 -188 2 93 -57 529 -101 748 -86 427 -245 821 -396 978 -84 87
-225 157 -442 220 -69 19 -197 56 -284 82 -432 125 -710 267 -795 405 -68 110
-94 226 -117 522 l-17 217 31 39 c143 180 370 622 399 775 11 58 -13 16 -70
-123 -115 -281 -223 -482 -332 -620 -146 -183 -383 -351 -602 -427 -65 -22
-96 -27 -188 -27 -160 -1 -178 9 -396 229 -95 96 -192 202 -215 235 -186 267
-287 675 -310 1252 -6 142 -9 168 -22 163 -22 -8 -13 10 110 220 195 334 277
446 453 620 256 253 237 237 303 239 49 1 68 7 119 39 l61 37 39 -22 c30 -18
53 -23 110 -23 65 0 75 3 100 28 35 32 95 37 126 10 15 -14 36 -18 101 -17 44
0 93 4 108 8 25 8 27 6 30 -25 3 -33 5 -34 48 -37 45 -3 46 -4 59 -47 12 -42
18 -47 89 -82 115 -56 222 -166 289 -298 77 -150 130 -342 164 -588 11 -78 10
-89 -5 -106 -27 -30 -53 -109 -76 -232 -11 -63 -25 -126 -30 -141 -10 -31 2
-45 20 -23 10 13 17 5 41 -45 23 -50 32 -60 54 -60 24 0 25 -2 25 -61 0 -52 2
-60 17 -57 44 8 160 213 222 392 90 258 181 789 181 1059 0 185 -56 455 -141
674 -23 59 -46 126 -51 148 -5 22 -16 63 -24 90 -7 28 -19 70 -25 95 -82 334
-577 603 -1099 599 -63 -1 -142 -5 -174 -10z m-41 -956 c-75 -68 -86 -50 -14
23 38 38 56 51 64 43 7 -8 -8 -27 -50 -66z m-1257 -1584 c7 -11 19 -18 27 -16
8 4 17 -5 24 -21 10 -28 20 -232 11 -232 -16 0 -84 67 -106 105 l-25 44 21 70
c12 39 25 71 29 71 3 0 12 -9 19 -21z m2039 -2229 c18 -10 39 -30 48 -44 9
-14 33 -30 53 -37 20 -7 95 -41 166 -76 71 -34 138 -63 150 -63 25 0 52 -15
40 -22 -5 -3 -22 -8 -39 -12 -16 -4 -89 -29 -162 -57 -72 -27 -143 -49 -156
-49 -21 0 -25 5 -30 48 -6 48 -71 235 -92 262 -6 8 -16 27 -23 43 -14 34 -2
36 45 7z"/>
<path d="M4390 8460 c34 -30 60 -39 60 -21 0 16 -51 51 -74 51 -18 -1 -17 -4
14 -30z"/>
<path d="M4170 8240 c0 -5 4 -10 10 -10 5 0 24 -13 43 -29 19 -17 38 -27 45
-22 8 4 -3 18 -30 39 -42 32 -68 41 -68 22z"/>
<path d="M3306 8209 c-91 -26 -198 -76 -277 -130 -69 -46 -169 -137 -202 -183
-19 -26 -19 -28 -1 -17 10 6 80 56 154 111 120 89 297 191 395 227 49 18 5 13
-69 -8z"/>
<path d="M2671 7806 c-41 -34 -91 -53 -111 -41 -16 10 -12 -12 6 -29 35 -36
95 -4 163 87 24 31 -13 20 -58 -17z"/>
<path d="M2625 6740 c14 -22 74 -40 172 -50 129 -13 173 -29 263 -95 59 -44
76 -52 78 -39 6 28 -50 95 -104 126 -61 34 -158 54 -308 64 -86 5 -107 4 -101
-6z"/>
<path d="M4023 6551 c-77 -13 -144 -39 -199 -80 -68 -49 -44 -50 123 -5 127
35 148 38 259 37 85 -1 127 2 139 11 15 11 10 14 -41 25 -80 16 -218 22 -281
12z"/>
<path d="M2615 6523 c-11 -3 -41 -14 -67 -25 l-47 -20 -27 21 c-36 28 -54 27
-54 -4 0 -33 176 -175 280 -224 64 -31 88 -37 158 -40 91 -3 155 13 187 49 25
28 16 32 -45 20 -112 -21 -226 -4 -285 42 -37 29 -85 97 -85 120 0 13 10 20
30 25 21 4 30 11 28 22 -3 17 -37 23 -73 14z"/>
<path d="M4160 6252 c0 -4 10 -12 22 -17 33 -15 32 -29 -1 -68 -76 -86 -202
-99 -330 -36 -39 19 -71 33 -71 29 0 -3 11 -22 25 -43 75 -109 293 -117 446
-15 54 37 109 105 109 136 0 20 -22 14 -50 -13 l-27 -26 -38 31 c-34 27 -85
41 -85 22z"/>
<path d="M4557 5856 c-3 -8 -32 -32 -63 -53 -68 -45 -78 -63 -36 -63 37 0 90
42 108 87 8 18 14 35 14 38 0 11 -18 4 -23 -9z"/>
<path d="M3044 5606 c-9 -23 24 -76 46 -76 27 0 27 39 0 68 -24 25 -38 28 -46
8z"/>
<path d="M3160 5560 c0 -5 12 -23 28 -40 31 -35 90 -48 209 -49 58 0 71 3 81
20 33 52 -37 76 -128 44 -58 -20 -74 -19 -108 10 -29 25 -82 34 -82 15z"/>
<path d="M3506 5528 c-20 -65 -10 -102 21 -82 12 7 19 26 21 53 3 36 1 41 -18
41 -11 0 -22 -6 -24 -12z"/>
<path d="M2957 5304 c-9 -9 18 -59 45 -84 34 -31 109 -49 254 -60 157 -12 190
-21 173 -48 -43 -68 -166 -90 -286 -50 -63 21 -70 22 -62 7 15 -30 64 -58 127
-74 108 -28 177 3 311 138 l83 85 -33 7 c-19 4 -74 25 -123 47 -78 36 -93 40
-118 30 -19 -7 -50 -7 -99 0 -56 7 -88 6 -151 -7 -73 -15 -82 -15 -97 -1 -10
9 -20 13 -24 10z m448 -68 c145 -38 73 -45 -200 -20 -85 8 -96 14 -60 30 47
21 159 16 260 -10z"/>
<path d="M3680 4645 c0 -2 20 -16 45 -30 55 -33 82 -22 28 11 -34 21 -73 31
-73 19z"/>
<path d="M3416 4615 c-32 -13 -65 -34 -74 -47 -9 -13 -35 -44 -59 -69 -45 -48
-73 -103 -73 -141 1 -33 60 -95 180 -185 114 -86 161 -117 200 -128 22 -7 23
-6 11 8 -7 9 -66 52 -130 96 -118 80 -177 134 -205 190 -20 37 -20 60 -2 67
35 14 253 -103 331 -177 17 -16 34 -29 38 -29 38 0 -70 125 -130 151 -28 12
-51 31 -64 54 -18 30 -24 33 -40 24 -25 -13 -72 -3 -93 20 -15 16 -14 21 13
58 31 43 71 71 139 98 l42 17 86 -81 c125 -119 217 -177 171 -109 -24 37 -51
62 -136 128 -45 34 -81 66 -81 71 0 17 -65 8 -124 -16z"/>
<path d="M3172 4257 c-6 -7 -15 -31 -21 -55 -21 -75 17 -157 113 -252 65 -63
73 -57 17 15 -124 158 -139 198 -93 262 18 25 19 32 8 36 -8 3 -19 0 -24 -6z"/>
<path d="M3350 3842 c56 -99 151 -213 400 -477 143 -151 229 -259 295 -368 86
-142 147 -324 161 -485 l7 -74 -44 6 c-24 3 -107 9 -185 12 -124 6 -142 4
-157 -11 -9 -9 -17 -20 -17 -24 0 -5 78 -8 173 -7 118 1 183 -3 209 -12 35
-13 37 -16 53 -85 16 -72 136 -569 241 -997 30 -124 62 -240 71 -258 9 -17 14
-33 12 -35 -17 -13 -149 -67 -162 -67 -9 0 -17 7 -17 16 0 30 -43 93 -79 117
-83 55 -497 114 -715 102 -65 -3 -129 -10 -142 -15 -13 -5 -76 -16 -141 -25
-65 -9 -134 -21 -153 -27 -37 -11 -124 -67 -117 -74 2 -2 28 7 58 20 117 53
192 61 584 61 385 0 457 -7 551 -49 46 -21 104 -78 104 -103 0 -11 -292 -69
-420 -83 -47 -5 -209 -8 -360 -6 -317 5 -410 17 -496 66 -43 24 -63 30 -86 25
l-29 -7 7 -65 c3 -36 7 -72 8 -81 1 -13 -11 -18 -50 -23 -28 -4 -84 -16 -125
-27 -152 -43 -183 -51 -189 -47 -4 2 -10 82 -14 177 -7 178 -15 229 -40 263
-18 25 -34 11 -18 -16 27 -42 30 -120 21 -454 -13 -481 -18 -556 -38 -579 -26
-31 -128 -74 -204 -87 -199 -33 -366 33 -396 158 -15 59 -20 728 -7 818 6 44
5 57 -3 49 -18 -16 -39 -145 -53 -316 l-12 -157 -63 -15 c-34 -9 -75 -16 -90
-16 -28 0 -29 1 -41 88 -6 48 -32 170 -58 272 -80 327 -85 355 -91 592 -5 210
-5 220 17 270 34 79 29 152 -20 301 -45 136 -59 211 -52 275 5 48 15 53 38 17
12 -19 15 -37 11 -69 l-6 -43 37 -1 c21 -1 60 -6 88 -11 77 -15 300 -3 574 30
552 66 650 79 759 104 127 29 241 43 241 29 -1 -5 -21 -25 -45 -44 -88 -69
-254 -161 -480 -266 -126 -59 -234 -111 -240 -116 -15 -14 58 0 145 29 116 38
230 99 436 233 306 200 460 269 625 277 70 4 79 2 105 -20 l28 -25 -17 -53
c-20 -66 -59 -114 -140 -176 -71 -53 -127 -104 -127 -114 0 -4 30 13 66 37 64
43 84 52 84 37 -1 -18 -134 -192 -246 -320 -142 -163 -247 -294 -240 -300 13
-14 99 72 207 207 20 25 65 77 101 115 151 163 234 270 283 364 25 49 65 170
65 197 0 35 -60 80 -126 95 -75 17 -194 0 -279 -39 l-61 -29 -39 41 c-32 34
-40 38 -43 23 -2 -10 3 -29 12 -42 17 -26 21 -61 9 -68 -5 -3 -53 -10 -108
-17 -55 -6 -259 -34 -453 -61 -511 -71 -607 -80 -910 -86 l-272 -6 0 37 c0 20
-4 44 -9 54 -6 9 -22 42 -36 72 -15 30 -45 79 -67 108 -51 68 -95 152 -104
197 -12 67 -90 101 -209 92 -75 -6 -205 -42 -218 -61 -4 -6 -5 -34 -2 -63 4
-30 1 -69 -7 -95 -7 -23 -13 -92 -13 -153 0 -109 0 -110 -42 -190 -89 -172
-126 -372 -125 -685 1 -223 7 -453 17 -680 3 -80 7 -239 8 -354 l2 -208 -50 6
c-27 4 -99 8 -160 9 -60 2 -186 7 -280 11 -106 5 -179 4 -195 -2 -22 -8 -17
-11 49 -26 61 -14 120 -16 335 -14 317 2 310 4 301 -86 -7 -60 -6 -65 21 -95
17 -18 60 -45 104 -63 92 -38 184 -43 339 -16 197 33 249 61 268 140 7 29 12
70 13 90 0 32 3 37 30 43 16 4 62 6 102 5 40 -2 101 1 135 5 33 4 77 5 97 1
34 -7 36 -9 36 -47 0 -22 7 -72 15 -112 9 -40 18 -82 20 -94 6 -28 92 -69 183
-89 138 -29 327 -11 417 39 38 21 40 26 47 82 14 120 25 192 31 202 7 11 320
26 353 17 17 -4 30 -27 53 -91 17 -47 31 -96 31 -109 0 -29 14 -36 126 -63
226 -56 533 -86 734 -71 215 17 369 67 468 154 50 44 102 120 102 147 0 30 25
35 120 25 80 -8 92 -7 109 9 27 24 101 12 101 -16 0 -31 39 -105 76 -143 49
-50 107 -82 199 -107 69 -19 97 -21 220 -16 149 5 227 23 329 74 68 34 151
116 173 169 20 49 25 51 79 28 34 -14 74 -16 290 -12 139 3 276 2 305 -2 30
-4 56 -6 57 -4 2 1 -11 11 -30 20 -26 15 -58 19 -163 19 -71 1 -141 5 -154 9
-21 7 -23 12 -16 50 4 22 8 214 10 426 l3 385 26 74 c27 76 34 163 16 191 -8
13 -13 13 -31 2 -29 -19 -33 -11 -20 48 15 69 14 135 -2 149 -8 6 -12 23 -9
40 5 35 -14 50 -24 19 -8 -27 -125 -197 -170 -248 -46 -52 -77 -100 -65 -100
6 0 35 25 65 55 61 61 97 76 121 51 9 -9 21 -16 26 -16 37 0 -47 -126 -158
-236 -46 -46 -90 -84 -97 -84 -21 0 -26 24 -26 122 l0 91 38 33 c22 18 67 71
100 118 60 81 62 87 62 144 0 50 -29 175 -47 205 -8 14 -34 -15 -96 -108 -33
-49 -70 -101 -83 -115 l-23 -25 47 -1 c26 -1 59 -5 75 -9 25 -7 28 -4 42 31
34 85 55 98 55 32 -1 -57 -27 -111 -88 -180 -28 -32 -57 -67 -66 -80 -21 -30
-30 -17 -27 41 2 43 -2 54 -30 85 -20 23 -29 43 -26 55 3 12 0 18 -7 15 -6 -2
-56 13 -111 35 -96 37 -230 71 -281 71 -13 0 -24 5 -24 10 0 6 -7 10 -15 10
-8 0 -15 -4 -15 -10 0 -5 -18 -10 -39 -10 -37 0 -113 -21 -266 -72 -69 -23
-125 -62 -125 -85 0 -15 2 -15 17 -1 30 26 94 54 168 74 100 26 433 27 516 2
84 -26 149 -74 179 -131 l25 -48 -56 -53 c-113 -106 -203 -130 -474 -131 -110
0 -217 3 -238 7 -54 10 -130 54 -179 104 -48 49 -58 53 -58 25 0 -24 89 -93
160 -124 80 -35 138 -45 300 -52 134 -6 153 -4 245 19 61 16 141 46 206 79
l105 53 18 -280 c19 -293 15 -391 -18 -470 -10 -25 -12 -45 -5 -73 16 -71 -29
-287 -75 -358 -8 -12 -42 -31 -78 -44 -34 -12 -76 -30 -93 -39 -45 -26 -467
-25 -540 1 -109 38 -153 104 -174 263 -15 117 -19 175 -12 172 3 -2 33 -17 66
-34 84 -44 123 -54 260 -65 66 -5 142 -12 169 -15 27 -3 65 -1 85 5 20 5 74
17 120 26 91 17 191 54 231 85 20 15 23 21 13 31 -15 15 -17 61 -4 75 16 15
-5 268 -24 301 -15 26 -16 19 -10 -124 7 -170 -1 -216 -42 -257 -37 -37 -56
-30 -66 24 -5 25 -14 51 -19 58 -23 28 -30 10 -23 -62 l7 -73 -28 -6 c-16 -3
-39 -8 -51 -12 -19 -6 -22 -2 -29 42 -16 112 -46 123 -42 15 l3 -67 -110 -8
c-60 -4 -162 -6 -225 -5 -105 4 -120 7 -169 33 -97 53 -144 147 -144 289 0
167 4 266 13 271 10 6 15 -31 30 -217 7 -90 18 -161 33 -205 l22 -68 3 58 c2
33 -6 117 -18 189 -11 71 -24 181 -27 244 -5 93 -9 117 -22 122 -23 8 -31 24
-24 49 3 13 1 23 -5 23 -23 0 -35 -130 -36 -370 -1 -135 -5 -251 -9 -257 -5
-7 -14 -13 -21 -13 -17 0 -6 -69 17 -103 21 -33 49 -131 42 -149 -9 -23 -295
-15 -309 9 -5 9 -6 54 -3 101 4 71 2 92 -13 120 l-19 35 -3 -64 -3 -64 -40
-12 c-249 -76 -462 -99 -830 -88 -193 5 -247 10 -337 30 -99 23 -189 33 -175
19 11 -12 195 -53 302 -69 244 -35 524 -39 695 -10 88 15 330 83 370 105 l23
12 -5 -114 c-4 -101 -7 -119 -33 -166 -47 -87 -136 -138 -295 -169 -101 -19
-558 -29 -660 -14 -41 6 -141 28 -222 48 -146 36 -147 37 -154 67 -3 17 -22
72 -41 121 -19 50 -37 111 -40 136 -5 43 -3 48 21 64 l27 18 -32 33 c-18 19
-37 34 -41 34 -12 0 -4 -142 11 -168 18 -34 5 -46 -43 -36 -22 4 -99 8 -171 8
-71 1 -136 5 -142 9 -9 6 -13 45 -13 138 0 119 1 129 19 129 10 0 51 14 92 31
97 40 261 81 273 69 6 -6 2 -34 -9 -75 -9 -36 -15 -69 -11 -72 10 -11 18 4 32
64 7 32 18 59 23 61 6 2 8 43 4 107 l-6 103 60 -30 c35 -17 109 -39 179 -53
106 -22 144 -25 354 -25 240 0 344 9 555 49 61 11 133 23 161 27 l51 6 7 -43
c3 -24 9 -60 12 -80 l6 -35 -159 -37 c-364 -86 -643 -96 -926 -32 -62 14 -139
28 -172 30 l-60 5 41 -20 c61 -29 140 -47 334 -76 250 -38 369 -32 615 31 120
31 207 48 259 50 95 4 101 10 91 100 -6 62 -6 64 22 81 15 10 48 30 72 46 41
26 94 38 89 20 -3 -12 14 -76 24 -88 5 -7 8 -16 7 -20 -4 -17 34 -134 44 -134
9 0 7 18 -15 105 -6 22 -10 55 -10 74 1 19 -7 50 -18 70 -21 43 -34 86 -66
235 -13 61 -37 161 -53 221 -16 61 -61 243 -100 405 -168 696 -194 800 -240
939 -26 80 -72 200 -100 267 -50 117 -54 122 -114 166 -94 70 -231 212 -424
440 -96 114 -179 211 -185 214 -6 4 -1 -11 12 -34z m-2120 -1050 c41 -16 46
-21 53 -62 15 -78 13 -121 -7 -136 -17 -12 -17 -14 -3 -28 21 -22 31 -113 18
-162 -12 -42 -51 -76 -118 -100 -45 -15 -203 -19 -203 -4 0 16 -30 12 -36 -5
-4 -8 0 -22 7 -31 11 -14 10 -18 -6 -31 -19 -14 -19 -15 -2 -28 29 -21 92 -28
132 -15 19 6 66 37 103 67 65 54 108 81 116 72 2 -2 29 -59 60 -127 99 -214
103 -244 113 -844 l4 -268 22 0 c20 0 27 -19 88 -266 l66 -265 -36 -16 c-20
-9 -56 -16 -81 -17 l-44 -1 -9 45 c-4 26 -4 96 2 165 10 123 4 236 -14 242 -6
2 -10 -34 -10 -95 0 -53 -2 -216 -4 -362 -4 -353 -2 -348 -171 -390 -176 -43
-396 -36 -471 16 l-35 24 -15 363 c-7 199 -14 607 -14 907 l0 545 27 80 c15
44 46 109 68 145 81 132 79 125 80 340 0 144 3 197 12 205 13 12 84 39 123 48
47 11 143 5 185 -11z m162 -300 l31 -29 -11 -58 c-16 -78 -15 -149 2 -215 8
-30 13 -56 11 -58 -7 -8 -48 62 -67 115 -13 39 -22 93 -25 166 -6 122 0 131
59 79z m96 -537 c6 -76 -11 -86 -21 -13 -4 24 -9 59 -13 78 -6 33 -6 34 11 19
12 -12 19 -39 23 -84z m4667 -567 c-24 -111 -93 -226 -208 -348 -69 -74 -77
-92 -32 -72 21 10 28 9 46 -9 25 -25 42 -14 64 38 8 18 19 33 24 33 36 0 -30
-110 -112 -185 -73 -68 -94 -85 -102 -85 -3 0 -5 32 -5 70 0 64 3 73 26 95 24
23 25 25 8 31 -51 15 -52 20 -44 197 0 4 6 7 14 7 7 0 52 39 99 86 85 85 87
87 126 81 39 -5 40 -4 52 32 21 64 56 88 44 29z m-45 -709 l0 -302 -37 7 c-21
3 -98 6 -172 6 l-134 0 5 78 c10 144 57 230 209 380 55 53 102 105 105 114 18
59 24 -9 24 -283z m-4260 -210 l0 -81 -62 7 c-35 3 -110 5 -168 5 -91 -1 -109
1 -129 18 -19 14 -23 24 -17 45 6 24 11 27 49 28 23 0 92 13 152 29 61 15 125
28 143 29 l32 1 0 -81z"/>
<path d="M892 974 c-27 -18 -20 -34 14 -34 33 0 64 17 64 35 0 20 -49 19 -78
-1z"/>
<path d="M912 753 c-34 -3 -43 -8 -40 -21 6 -34 98 -22 98 13 0 8 -3 14 -7 13
-5 -1 -27 -3 -51 -5z"/>
<path d="M1880 3757 c13 -14 206 -62 450 -112 146 -30 276 -58 290 -61 45 -12
17 4 -55 31 -95 36 -305 90 -445 114 -130 23 -248 36 -240 28z"/>
<path d="M3467 3507 c-43 -40 -59 -67 -39 -67 20 0 82 53 88 76 10 39 1 38
-49 -9z"/>
<path d="M3497 2418 c-176 -196 -267 -301 -263 -305 11 -11 70 33 112 84 27
32 87 96 135 143 86 85 109 115 109 144 0 29 -18 16 -93 -66z"/>
<path d="M5336 2343 c28 -82 31 -182 8 -303 -18 -95 -16 -188 3 -155 6 11 18
71 27 133 8 62 20 121 26 132 6 12 11 47 11 80 1 51 -4 68 -37 120 -51 83 -69
79 -38 -7z"/>
<path d="M2168 2180 c-50 -41 -74 -111 -87 -250 -6 -63 -9 -115 -7 -118 14
-13 66 161 66 223 1 35 2 38 14 23 7 -10 22 -18 32 -18 29 0 64 28 64 51 0 23
-22 25 -40 4 -18 -21 -50 -19 -50 3 0 25 31 52 59 52 34 0 56 -16 81 -57 22
-36 28 -73 44 -278 2 -22 4 -45 5 -52 0 -6 16 -21 34 -32 19 -11 39 -32 45
-46 15 -32 38 -292 29 -327 -6 -23 -14 -27 -74 -37 -38 -6 -129 -15 -203 -20
-134 -9 -135 -9 -160 15 -24 24 -25 28 -28 190 -3 138 -1 169 13 190 18 28 9
31 -22 6 -50 -39 -68 -172 -38 -285 8 -32 15 -66 15 -75 0 -9 15 -33 32 -52
30 -33 36 -35 93 -34 95 2 181 12 237 29 59 17 124 20 133 5 13 -22 23 -7 30
48 12 87 10 158 -9 262 -20 111 -40 158 -72 170 -31 12 -38 46 -30 146 5 71 3
92 -15 141 -23 63 -104 153 -137 153 -9 0 -34 -14 -54 -30z"/>
<path d="M5141 2064 c27 -62 114 -223 117 -215 12 37 -71 208 -107 219 -7 3
-12 1 -10 -4z"/>
<path d="M2061 1733 c-32 -4 -32 -5 -13 -18 29 -21 158 -38 231 -31 73 6 98
21 54 30 -39 8 -205 26 -223 24 -8 -1 -30 -3 -49 -5z"/>
<path d="M4849 1448 c-11 -20 -8 -25 26 -53 40 -34 120 -55 209 -55 54 0 54
14 0 25 -85 15 -164 47 -193 76 l-30 30 -12 -23z"/>
<path d="M2162 1151 c3 -72 1 -83 -19 -103 -27 -27 -98 -29 -157 -4 -26 11
-43 13 -49 7 -12 -12 7 -20 122 -51 l83 -23 -7 -171 c-4 -94 -8 -211 -10 -261
-3 -74 1 -105 22 -173 34 -116 82 -160 97 -89 12 52 25 337 26 529 l0 178 40
6 c41 7 137 60 127 71 -3 3 -27 -2 -53 -11 -26 -9 -63 -16 -82 -16 l-34 0 2
68 c4 87 2 102 -10 102 -6 0 -10 -33 -10 -80 0 -65 -3 -82 -16 -87 -37 -14
-49 10 -49 97 0 59 -4 84 -13 88 -10 3 -12 -14 -10 -77z m74 -266 c2 -49 3
-94 3 -100 0 -5 -4 -62 -9 -125 -4 -63 -9 -165 -9 -227 -1 -103 -9 -140 -26
-112 -12 18 -16 102 -21 367 -4 268 -1 296 38 290 20 -3 22 -10 24 -93z"/>
<path d="M1945 1197 c-26 -41 -39 -87 -26 -100 8 -8 11 -7 11 4 0 7 11 38 25
67 24 52 18 72 -10 29z"/>
<path d="M3190 996 c0 -3 7 -12 16 -20 10 -11 34 -16 72 -16 87 0 94 15 13 28
-74 13 -101 15 -101 8z"/>
<path d="M3420 346 c0 -37 42 -42 112 -14 43 16 23 28 -48 28 -48 0 -64 -4
-64 -14z"/>
<path d="M3896 330 c-28 -11 -57 -26 -65 -35 -14 -13 -13 -15 9 -15 60 1 190
43 190 62 0 15 -84 7 -134 -12z"/>
<path d="M4220 308 c-114 -59 -234 -81 -445 -81 -187 0 -331 16 -569 64 -82
16 -151 28 -153 26 -8 -8 135 -55 227 -75 137 -30 378 -62 462 -62 83 0 365
52 446 82 48 18 144 89 117 87 -5 -1 -44 -19 -85 -41z"/>
</g>
</svg>
